<?xml version="1.0" standalone="no"?>
<!DOCTYPE svg PUBLIC "-//W3C//DTD SVG 20010904//EN"
 "http://www.w3.org/TR/2001/REC-SVG-20010904/DTD/svg10.dtd">
<svg version="1.0" xmlns="http://www.w3.org/2000/svg"
 width="256.000000pt" height="256.000000pt" viewBox="0 0 256.000000 256.000000"
 preserveAspectRatio="xMidYMid meet">

    <style>
		:root {
				fill: rgba(0, 0, 0, 1);
		}
		@media (prefers-color-scheme: dark) {
			:root {
				fill: rgba(0, 204, 20, 1);
			}
		}
    </style>

<g transform="translate(0.000000,256.000000) scale(0.100000,-0.100000)" stroke="none">
<path d="M0 1280 l0 -1280 1280 0 1280 0 0 1280 0 1280 -1280 0 -1280 0 0
-1280z m2240 480 l0 -480 -160 0 -160 0 0 -160 0 -160 160 0 160 0 0 -320 0
-320 -320 0 -320 0 0 160 0 160 -160 0 -160 0 0 -160 0 -160 -480 0 -480 0 0
160 0 160 160 0 160 0 0 160 0 160 -160 0 -160 0 0 640 0 640 960 0 960 0 0
-480z"/>
<path d="M1600 1760 l0 -160 160 0 160 0 0 160 0 160 -160 0 -160 0 0 -160z"/>
<path d="M960 1440 l0 -160 -160 0 -160 0 0 -160 0 -160 160 0 160 0 0 160 0
160 160 0 160 0 0 -160 0 -160 160 0 160 0 0 -160 0 -160 160 0 160 0 0 160 0
160 -160 0 -160 0 0 160 0 160 -160 0 -160 0 0 160 0 160 -160 0 -160 0 0
-160z"/>
</g>
</svg>
